<?xml version="1.0" encoding="utf-8"?>
<!-- Generator: Adobe Illustrator 26.5.1, SVG Export Plug-In . SVG Version: 6.00 Build 0)  -->
<svg version="1.1" id="Laag_1" xmlns="http://www.w3.org/2000/svg" xmlns:xlink="http://www.w3.org/1999/xlink" x="0px" y="0px"
	 viewBox="0 0 126.2 46.5" style="enable-background:new 0 0 126.2 46.5;" xml:space="preserve">
<style type="text/css">
	.st0{fill:none;}
	.st1{clip-path:url(#SVGID_00000074407636106112599540000007954563845252954278_);}
	.st2{clip-path:url(#SVGID_00000015317822358365704590000009804682937090771884_);fill:#FCDA03;}
	.st3{clip-path:url(#SVGID_00000087387863741758796190000000649713995576834713_);}
	.st4{clip-path:url(#SVGID_00000072239319895803862680000011831425117082807708_);fill:#FCDA03;}
</style>
<g>
	<g>
		<rect x="0" y="0.8" class="st0" width="116.7" height="14.6"/>
		<path d="M7.4,14.1c-0.1,0-0.2-0.1-0.3-0.3L3.4,4.9l-1,9.4c0,0.2-0.1,0.4-0.4,0.4H1.2c-0.3,0-0.4-0.1-0.4-0.4L2.1,2.5
			c0-0.1,0-0.2,0.1-0.3s0.2-0.1,0.3-0.1h1.3c0.2,0,0.3,0.1,0.4,0.3l3.7,8.9l3.7-8.9c0-0.1,0.1-0.2,0.1-0.2c0.1-0.1,0.1-0.1,0.2-0.1
			h1.3c0.1,0,0.2,0,0.3,0.1c0.1,0.1,0.1,0.2,0.1,0.3l1.3,11.8c0,0.2-0.1,0.4-0.4,0.4h-0.9c-0.3,0-0.4-0.1-0.4-0.4l-1-9.4l-3.7,8.9
			c-0.1,0.2-0.2,0.3-0.3,0.3H7.4z"/>
		<path d="M25.8,13.3c-0.5,0.5-1,0.9-1.7,1.2c-0.6,0.3-1.3,0.4-2.1,0.4c-0.5,0-1-0.1-1.5-0.2c-0.5-0.1-0.9-0.3-1.3-0.6
			c-0.4-0.2-0.8-0.5-1.1-0.9c-0.3-0.3-0.6-0.7-0.9-1.1c-0.2-0.4-0.4-0.9-0.6-1.3c-0.1-0.5-0.2-1-0.2-1.5c0-0.5,0.1-1,0.2-1.5
			c0.1-0.5,0.3-0.9,0.6-1.3s0.5-0.8,0.9-1.1c0.3-0.3,0.7-0.6,1.1-0.9c0.4-0.2,0.8-0.4,1.3-0.6c0.5-0.1,1-0.2,1.5-0.2
			c0.7,0,1.4,0.1,2.1,0.4c0.6,0.3,1.2,0.7,1.7,1.2v-1c0-0.2,0.1-0.4,0.4-0.4H27c0.3,0,0.4,0.1,0.4,0.4v10c0,0.1,0,0.2-0.1,0.3
			c-0.1,0.1-0.2,0.1-0.3,0.1h-0.9c-0.1,0-0.2,0-0.3-0.1c-0.1-0.1-0.1-0.2-0.1-0.3V13.3z M25.9,9.3c0-0.5-0.1-1-0.3-1.5
			s-0.5-0.9-0.8-1.3c-0.3-0.4-0.8-0.6-1.2-0.9c-0.5-0.2-1-0.3-1.5-0.3c-0.5,0-1,0.1-1.5,0.3s-0.9,0.5-1.2,0.9
			c-0.3,0.4-0.6,0.8-0.8,1.3s-0.3,1-0.3,1.5c0,0.5,0.1,1,0.3,1.5s0.5,0.9,0.8,1.3c0.3,0.4,0.7,0.7,1.2,0.9c0.5,0.2,1,0.3,1.5,0.3
			c0.5,0,1-0.1,1.5-0.3c0.5-0.2,0.9-0.5,1.2-0.9c0.3-0.4,0.6-0.8,0.8-1.3S25.9,9.8,25.9,9.3z"/>
		<path d="M39,14.7c-0.2,0-0.4-0.1-0.4-0.4v-1c-0.5,0.5-1,0.9-1.7,1.2c-0.6,0.3-1.3,0.4-2.1,0.4c-0.5,0-1-0.1-1.5-0.2
			c-0.5-0.1-0.9-0.3-1.3-0.6c-0.4-0.2-0.8-0.5-1.1-0.9c-0.3-0.3-0.6-0.7-0.9-1.1s-0.4-0.8-0.6-1.3c-0.1-0.5-0.2-1-0.2-1.5
			c0-0.5,0.1-1,0.2-1.5c0.1-0.5,0.3-0.9,0.6-1.3c0.2-0.4,0.5-0.8,0.9-1.1c0.3-0.3,0.7-0.6,1.1-0.9c0.4-0.2,0.8-0.4,1.3-0.6
			c0.5-0.1,1-0.2,1.5-0.2c0.7,0,1.4,0.1,2.1,0.4c0.6,0.3,1.2,0.7,1.7,1.2V1.2c0-0.1,0-0.2,0.1-0.3c0.1-0.1,0.2-0.1,0.3-0.1h0.9
			c0.1,0,0.2,0,0.3,0.1c0.1,0.1,0.1,0.2,0.1,0.3v13.1c0,0.2-0.1,0.4-0.4,0.4H39z M38.7,9.3c0-0.5-0.1-1-0.3-1.5
			c-0.2-0.5-0.5-0.9-0.8-1.3c-0.3-0.4-0.8-0.7-1.2-0.9c-0.5-0.2-1-0.3-1.5-0.3c-0.5,0-1,0.1-1.5,0.3s-0.9,0.5-1.2,0.9
			c-0.3,0.4-0.6,0.8-0.8,1.3c-0.2,0.5-0.3,1-0.3,1.5c0,0.5,0.1,1,0.3,1.5c0.2,0.5,0.5,0.9,0.8,1.3c0.3,0.4,0.7,0.6,1.2,0.9
			s1,0.3,1.5,0.3c0.5,0,1-0.1,1.5-0.3c0.5-0.2,0.9-0.5,1.2-0.9c0.3-0.4,0.6-0.8,0.8-1.3C38.6,10.4,38.7,9.9,38.7,9.3z"/>
		<path d="M50.3,12.2c0.1,0,0.1-0.1,0.2-0.1c0.1,0,0.1-0.1,0.2-0.1c0.1,0,0.2,0.1,0.2,0.2c0.1,0.2,0.2,0.3,0.3,0.4
			c0.1,0.1,0.1,0.2,0.2,0.2c0,0.1,0.1,0.1,0.1,0.1c0,0,0.1,0.1,0.1,0.1c0,0,0,0.1,0,0.1c0,0.1,0,0.1-0.1,0.2s-0.1,0.2-0.2,0.2
			c-0.2,0.2-0.5,0.4-0.8,0.5c-0.3,0.2-0.5,0.3-0.8,0.4c-0.3,0.1-0.6,0.2-0.9,0.3c-0.3,0.1-0.7,0.1-1,0.1c-0.5,0-1-0.1-1.4-0.2
			c-0.5-0.1-0.9-0.3-1.3-0.6c-0.4-0.2-0.8-0.5-1.1-0.9s-0.6-0.7-0.9-1.1c-0.2-0.4-0.4-0.8-0.6-1.3c-0.1-0.5-0.2-1-0.2-1.5
			c0-0.5,0.1-1,0.2-1.5s0.3-0.9,0.5-1.3c0.2-0.4,0.5-0.8,0.8-1.1c0.3-0.3,0.7-0.6,1.1-0.9c0.4-0.2,0.9-0.4,1.3-0.6
			c0.5-0.1,1-0.2,1.5-0.2c0.4,0,0.8,0,1.3,0.1c0.4,0.1,0.8,0.2,1.2,0.4c0.4,0.2,0.7,0.4,1.1,0.7c0.3,0.3,0.6,0.6,0.9,0.9
			c0.4,0.5,0.6,1,0.8,1.7c0.2,0.6,0.3,1.3,0.2,2.1c0,0.3-0.1,0.4-0.4,0.4h-8.9c0.1,0.4,0.3,0.9,0.5,1.2c0.2,0.4,0.5,0.7,0.9,1
			c0.3,0.3,0.7,0.5,1.1,0.7s0.8,0.2,1.3,0.2c0.3,0,0.6,0,0.8-0.1c0.2-0.1,0.5-0.1,0.7-0.2c0.2-0.1,0.4-0.2,0.6-0.3
			S50.1,12.4,50.3,12.2L50.3,12.2z M45.7,6c-0.4,0.3-0.8,0.6-1.1,1.1C44.2,7.5,44,8,43.9,8.5h7.6c-0.1-0.5-0.2-0.9-0.4-1.3
			s-0.5-0.7-0.9-1s-0.7-0.5-1.2-0.6c-0.4-0.1-0.9-0.2-1.3-0.2c-0.4,0-0.7,0-1.1,0.1C46.3,5.7,46,5.8,45.7,6z"/>
		<path d="M62.3,5.4c0.5-0.5,1-0.9,1.7-1.2c0.6-0.3,1.3-0.4,2.1-0.4c0.5,0,1,0.1,1.5,0.2c0.5,0.1,0.9,0.3,1.3,0.6
			c0.4,0.2,0.8,0.5,1.1,0.9c0.3,0.3,0.6,0.7,0.9,1.1c0.2,0.4,0.4,0.9,0.6,1.3s0.2,1,0.2,1.5c0,0.5-0.1,1-0.2,1.5
			c-0.1,0.5-0.3,0.9-0.6,1.3s-0.5,0.8-0.9,1.1c-0.3,0.3-0.7,0.6-1.1,0.9c-0.4,0.2-0.9,0.4-1.3,0.6c-0.5,0.1-1,0.2-1.5,0.2
			c-0.7,0-1.4-0.1-2.1-0.4c-0.6-0.3-1.2-0.7-1.7-1.2v1c0,0.2-0.1,0.4-0.4,0.4h-0.9c-0.3,0-0.4-0.1-0.4-0.4V1.2c0-0.1,0-0.2,0.1-0.3
			c0.1-0.1,0.2-0.1,0.3-0.1h0.9c0.1,0,0.2,0,0.3,0.1c0.1,0.1,0.1,0.2,0.1,0.3V5.4z M62.2,9.3c0,0.5,0.1,1,0.3,1.5
			c0.2,0.5,0.5,0.9,0.8,1.3s0.8,0.6,1.2,0.9s1,0.3,1.5,0.3c0.5,0,1-0.1,1.5-0.3s0.9-0.5,1.2-0.9c0.3-0.4,0.6-0.8,0.8-1.3
			c0.2-0.5,0.3-1,0.3-1.5c0-0.5-0.1-1-0.3-1.5c-0.2-0.5-0.5-0.9-0.8-1.3c-0.3-0.4-0.8-0.7-1.2-0.9s-1-0.3-1.5-0.3
			c-0.5,0-1,0.1-1.5,0.3s-0.9,0.5-1.2,0.9c-0.3,0.4-0.6,0.8-0.8,1.3C62.3,8.3,62.2,8.8,62.2,9.3z"/>
		<path d="M74.3,4.3c0.1,0.3,0.2,0.6,0.4,1.1c0.2,0.4,0.4,0.9,0.5,1.4c0.2,0.5,0.4,1,0.6,1.6c0.2,0.5,0.4,1,0.6,1.5
			c0.2,0.5,0.4,0.9,0.5,1.3s0.3,0.7,0.4,0.9c0.1-0.2,0.2-0.5,0.4-0.9s0.3-0.8,0.5-1.3c0.2-0.5,0.4-1,0.6-1.5
			c0.2-0.5,0.4-1.1,0.6-1.6c0.2-0.5,0.4-1,0.5-1.4s0.3-0.8,0.4-1.1c0-0.1,0.1-0.2,0.2-0.2C80.7,4,80.8,4,80.9,4h0.9
			c0.2,0,0.4,0.1,0.4,0.3c0,0,0,0,0,0.1c0,0,0,0,0,0.1c0,0,0,0.1,0,0.1l-2,4.9l-3.4,8.3v0c-0.1,0.2-0.2,0.3-0.4,0.3h-0.8
			c-0.3,0-0.4-0.1-0.4-0.3c0,0,0-0.1,0-0.1c0,0,0-0.1,0-0.1l1.4-3.4l-3.9-9.5c0,0,0,0,0-0.1c0,0,0-0.1,0-0.2C72.6,4.1,72.7,4,73,4
			h0.9c0.1,0,0.2,0,0.3,0.1C74.2,4.1,74.3,4.2,74.3,4.3z"/>
	</g>
	<g>
		<g>
			<defs>
				<rect id="SVGID_1_" y="18.2" width="126.2" height="28.3"/>
			</defs>
			<clipPath id="SVGID_00000160162073782398329430000001503174194775999905_">
				<use xlink:href="#SVGID_1_"  style="overflow:visible;"/>
			</clipPath>
			<g style="clip-path:url(#SVGID_00000160162073782398329430000001503174194775999905_);">
				<defs>
					<rect id="SVGID_00000051346970898868039330000016835290965415490691_" y="18.2" width="126.2" height="28.3"/>
				</defs>
				<clipPath id="SVGID_00000000196987562634059180000004988296191471859391_">
					<use xlink:href="#SVGID_00000051346970898868039330000016835290965415490691_"  style="overflow:visible;"/>
				</clipPath>
				<path style="clip-path:url(#SVGID_00000000196987562634059180000004988296191471859391_);fill:#FCDA03;" d="M44.9,46.5
					c-1-0.4-2.1-0.7-3.2-1.1c-0.6-0.2-1.3-0.4-1.9-0.6c-0.2-0.1-0.3-0.2-0.3-0.4c0-1.6,0-3.1,0-4.7c0-0.3-0.1-0.4-0.4-0.4
					c-1.9,0-3.8,0-5.7,0c-0.3,0-0.4-0.1-0.6-0.3c-1.1-1.5-2.3-3.1-3.4-4.6c-0.1-0.1-0.2-0.2-0.3-0.4c-0.3-0.4-0.3-0.4-0.6,0
					c-1.3,1.7-2.5,3.4-3.8,5.1c-0.1,0.1-0.2,0.1-0.3,0.1c-2.1,0-4.1,0-6.2,0c0,0-0.1,0-0.1,0c0.6-0.8,1.1-1.5,1.6-2.3
					c0.9-1.3,1.8-2.5,2.7-3.8c1-1.3,1.9-2.7,2.9-4c0.2-0.2,0.1-0.3,0-0.4c-0.9-1.2-1.8-2.5-2.7-3.7c-1-1.4-2-2.8-3.1-4.1
					c-0.4-0.6-0.8-1.1-1.3-1.7c-0.1-0.1-0.2-0.2-0.1-0.3c0-0.1,0.2,0,0.3,0c2,0,4.1,0,6.1,0c0.2,0,0.3,0,0.4,0.2
					c0.6,0.8,1.1,1.6,1.7,2.4c0.7,1,1.4,2,2.2,3.1c0.3-0.5,0.7-0.9,1-1.4c1-1.4,1.9-2.7,2.9-4.1c0.1-0.1,0.2-0.2,0.4-0.2
					c2.1,0,4.2,0,6.3,0c0,0,0,0,0.1,0c-0.2,0.5-0.6,0.9-0.9,1.3c-0.9,1.3-1.9,2.5-2.8,3.8c-1.1,1.5-2.2,3-3.3,4.5
					c-0.4,0.5-0.4,0.5,0,1c1.2,1.7,2.5,3.4,3.7,5.1c1.1,1.5,2.1,2.9,3.2,4.4c0.1-0.1,0.1-0.3,0.1-0.4c0-3.2,0-6.4,0-9.6
					c0-1.9,0.5-3.6,1.5-5.2c1-1.7,2.5-3,4.3-3.9c1.1-0.5,2.2-0.9,3.5-1c2-0.2,3.9,0.1,5.7,0.9c3.1,1.5,5,4,5.7,7.3
					c0.3,1.3,0.3,2.6,0.1,4c-0.3,1.9-1.1,3.5-2.3,4.9c-1.1,1.4-2.5,2.4-4.2,3c-1.1,0.4-2.2,0.7-3.4,0.7c-1.7,0.1-3.4-0.3-4.9-1
					C45,38.4,45,38.4,45,38.8c0,2.6,0,5.1,0,7.7C45,46.5,44.9,46.5,44.9,46.5 M50,34.1c2.7,0,4.9-2.2,4.9-4.9c0-2.8-2.2-4.9-4.9-4.9
					c-2.7,0-4.9,2.1-4.9,4.9C45.1,31.9,47.2,34,50,34.1"/>
				<path style="clip-path:url(#SVGID_00000000196987562634059180000004988296191471859391_);fill:#FCDA03;" d="M0,28.4
					c0.1-0.5,0.1-0.9,0.2-1.4c0.3-1.6,1-3,2-4.3c1.1-1.3,2.3-2.3,3.9-3c1-0.4,2-0.7,3-0.8c1.6-0.2,3.1,0,4.5,0.5
					c1.2,0.4,2.3,1.1,3.3,1.9c1.8,1.5,2.9,3.4,3.4,5.7c0.2,0.7,0.2,1.4,0.2,2.1c0,0.8,0,1.6,0,2.4c0,0.3-0.1,0.4-0.4,0.4
					c-4.5,0-9.1,0-13.6,0H6.2c0.7,1,1.6,1.7,2.7,2.1c1.3,0.4,2.5,0.3,3.7-0.3c0.5-0.2,0.9-0.5,1.2-0.9c0.1-0.1,0.2-0.2,0.4,0
					c0.7,0.7,1.4,1.4,2.1,2c0.5,0.4,0.9,0.9,1.4,1.3c0.2,0.2,0.2,0.2,0,0.4c-1.5,1.5-3.3,2.4-5.4,2.8c-0.7,0.1-1.3,0.2-2,0.2
					c-2.3-0.1-4.4-0.8-6.3-2.2c-1.3-1-2.3-2.2-3-3.6c-0.6-1.1-0.9-2.4-1-3.6c0-0.1,0-0.1-0.1-0.2C0,29.4,0,28.9,0,28.4 M14.5,26.5
					c-0.9-1.6-3.1-2.6-4.9-2.3c-1.4,0.2-2.5,0.9-3.3,2c-0.1,0.1-0.2,0.1-0.1,0.2c0.1,0.1,0.2,0.1,0.3,0.1c2,0,4.1,0,6.1,0
					C13.2,26.5,13.9,26.5,14.5,26.5"/>
				<path style="clip-path:url(#SVGID_00000000196987562634059180000004988296191471859391_);fill:#FCDA03;" d="M86.6,20
					c0.7-0.3,1.4-0.5,2.1-0.6c0.8-0.1,1.6-0.2,2.5-0.1c0.8,0.1,1.6,0.3,2.3,0.5c1.1,0.4,2.1,1,2.9,1.8c1.4,1.3,2.3,2.9,2.8,4.7
					c0.2,0.7,0.3,1.4,0.3,2c0,3.5,0,6.9,0,10.4c0,0.4-0.1,0.5-0.5,0.5c-1.6,0-3.2,0-4.7,0c-0.3,0-0.4-0.1-0.4-0.4c0-3.5,0-7,0-10.5
					c0-1.9-1.7-3.6-3.6-3.6c-1.1,0-2,0.3-2.8,1.1c-0.6,0.6-1,1.4-1,2.3c0,3.6,0,7.1,0,10.7c0,0.4-0.1,0.4-0.4,0.4
					c-1.6,0-3.1,0-4.7,0c-0.3,0-0.4-0.1-0.4-0.4c0-3.3,0-6.6,0-9.9c0-3.3,0-6.7,0-10c0-0.3,0.1-0.4,0.4-0.4c1.6,0,3.2,0,4.8,0
					c0.3,0,0.4,0.1,0.4,0.4C86.5,19.3,86.6,19.7,86.6,20"/>
				<path style="clip-path:url(#SVGID_00000000196987562634059180000004988296191471859391_);fill:#FCDA03;" d="M101,29
					c0-2.4,0.8-4.6,2.4-6.6c1.6-1.9,3.6-3.1,6-3.6c2.7-0.5,5.3-0.1,7.7,1.4c1.1,0.7,2,1.5,2.8,2.6c0.1,0.2,0.2,0.3-0.1,0.4
					c-1.3,0.9-2.7,1.9-4,2.8c-0.2,0.1-0.4,0.2-0.5-0.1c-0.9-1.1-2-1.7-3.4-1.8c-1.5-0.1-2.9,0.4-3.9,1.5c-0.8,0.8-1.2,1.7-1.3,2.8
					c-0.2,1.7,0.4,3,1.5,4.2c0.7,0.7,1.6,1.1,2.6,1.2c1.8,0.3,3.2-0.3,4.4-1.6c0.1-0.1,0.2-0.4,0.4-0.4c0.2,0,0.3,0.2,0.5,0.3
					c1.3,0.9,2.6,1.7,3.8,2.6c0.2,0.1,0.2,0.2,0,0.4c-1.1,1.5-2.5,2.6-4.2,3.4c-1.2,0.5-2.5,0.9-3.8,0.9c-1.5,0.1-2.9-0.2-4.3-0.7
					c-1.2-0.5-2.3-1.1-3.2-2c-1.1-1-1.9-2.1-2.5-3.4c-0.5-1-0.8-2-0.9-3.1C101,30,101,29.6,101,29"/>
				<path style="clip-path:url(#SVGID_00000000196987562634059180000004988296191471859391_);fill:#FCDA03;" d="M77.6,18.2h0.2
					c0,6.9,0,13.8,0,20.7c0,0.4-0.1,0.5-0.5,0.5c-1.6,0-3.2,0-4.8,0c-0.3,0-0.3-0.1-0.3-0.3c0-6.2,0-12.5,0-18.7
					c0-0.3,0.1-0.3,0.3-0.4C74.3,19.3,76,18.8,77.6,18.2"/>
				<path style="clip-path:url(#SVGID_00000000196987562634059180000004988296191471859391_);fill:#FCDA03;" d="M126.2,35.8v0.7
					c-0.2,0.8-0.7,1.5-1.6,1.7c-1,0.3-2-0.1-2.5-0.9c-0.6-0.9-0.5-1.9,0.3-2.7c0.6-0.6,1.4-0.9,2.2-0.6
					C125.5,34.3,126,34.8,126.2,35.8C126.2,35.7,126.2,35.7,126.2,35.8"/>
			</g>
		</g>
	</g>
</g>
<g>
	<rect x="-630.5" y="-162.1" class="st0" width="196.6" height="24.7"/>
	<path d="M-618.2-139.9c-0.2,0-0.4-0.2-0.5-0.5l-6.1-14.9l-1.6,15.7c0,0.4-0.2,0.6-0.6,0.6h-1.5c-0.4,0-0.6-0.2-0.6-0.6l2.2-19.6
		c0-0.2,0.1-0.3,0.2-0.4c0.1-0.1,0.3-0.2,0.5-0.2h2.2c0.3,0,0.5,0.2,0.6,0.5l6.1,14.9l6.1-14.9c0-0.2,0.1-0.3,0.2-0.4
		c0.1-0.1,0.2-0.1,0.4-0.1h2.2c0.2,0,0.3,0.1,0.5,0.2c0.1,0.1,0.2,0.3,0.2,0.4l2.2,19.6c0,0.4-0.2,0.6-0.6,0.6h-1.5
		c-0.4,0-0.6-0.2-0.6-0.6l-1.6-15.7l-6.2,14.9c-0.2,0.3-0.3,0.5-0.6,0.5H-618.2z"/>
	<path d="M-587.7-141.4c-0.8,0.8-1.7,1.5-2.8,1.9c-1.1,0.5-2.2,0.7-3.5,0.7c-0.8,0-1.6-0.1-2.4-0.3s-1.5-0.5-2.2-0.9
		c-0.7-0.4-1.3-0.9-1.9-1.4s-1-1.2-1.4-1.9c-0.4-0.7-0.7-1.4-0.9-2.2s-0.3-1.6-0.3-2.4c0-0.8,0.1-1.6,0.3-2.4s0.5-1.5,0.9-2.2
		c0.4-0.7,0.9-1.3,1.4-1.9s1.2-1,1.9-1.4s1.4-0.7,2.2-0.9c0.8-0.2,1.6-0.3,2.4-0.3c1.2,0,2.4,0.2,3.5,0.7c1.1,0.5,2,1.1,2.8,1.9
		v-1.7c0-0.4,0.2-0.6,0.6-0.6h1.4c0.4,0,0.7,0.2,0.7,0.6v16.6c0,0.2-0.1,0.3-0.2,0.4c-0.1,0.1-0.3,0.2-0.4,0.2h-1.5
		c-0.2,0-0.4-0.1-0.5-0.2c-0.1-0.1-0.2-0.3-0.2-0.4V-141.4z M-587.5-147.9c0-0.9-0.2-1.7-0.5-2.5c-0.3-0.8-0.8-1.5-1.4-2.1
		c-0.6-0.6-1.3-1.1-2-1.4c-0.8-0.4-1.6-0.5-2.5-0.5c-0.9,0-1.7,0.2-2.5,0.5c-0.8,0.4-1.4,0.8-2,1.4c-0.6,0.6-1,1.3-1.4,2.1
		c-0.3,0.8-0.5,1.6-0.5,2.5c0,0.9,0.2,1.7,0.5,2.5s0.8,1.5,1.4,2.1c0.6,0.6,1.2,1.1,2,1.5c0.8,0.4,1.6,0.5,2.5,0.5
		c0.9,0,1.7-0.2,2.5-0.5c0.8-0.4,1.5-0.9,2-1.5c0.6-0.6,1-1.3,1.4-2.1S-587.5-147.1-587.5-147.9z"/>
	<path d="M-565.7-139c-0.4,0-0.6-0.2-0.6-0.6v-1.7c-0.8,0.8-1.7,1.5-2.8,1.9c-1.1,0.5-2.2,0.7-3.5,0.7c-0.8,0-1.6-0.1-2.4-0.3
		s-1.5-0.5-2.2-0.9s-1.3-0.9-1.9-1.4s-1-1.2-1.4-1.9c-0.4-0.7-0.7-1.4-0.9-2.2s-0.3-1.6-0.3-2.4c0-0.8,0.1-1.6,0.3-2.4
		s0.5-1.5,0.9-2.2c0.4-0.7,0.9-1.3,1.4-1.9s1.2-1,1.9-1.4c0.7-0.4,1.4-0.7,2.2-0.9c0.8-0.2,1.6-0.3,2.4-0.3c1.2,0,2.4,0.2,3.5,0.7
		c1.1,0.5,2,1.1,2.8,1.9v-7c0-0.2,0.1-0.3,0.2-0.4c0.1-0.1,0.3-0.2,0.5-0.2h1.5c0.2,0,0.3,0.1,0.4,0.2c0.1,0.1,0.2,0.3,0.2,0.4v21.8
		c0,0.4-0.2,0.6-0.7,0.6H-565.7z M-566.2-147.9c0-0.9-0.2-1.7-0.5-2.5c-0.3-0.8-0.8-1.5-1.4-2.1c-0.6-0.6-1.3-1.1-2-1.5
		c-0.8-0.4-1.6-0.5-2.5-0.5c-0.9,0-1.7,0.2-2.5,0.5c-0.8,0.4-1.4,0.9-2,1.5s-1,1.3-1.4,2.1c-0.3,0.8-0.5,1.6-0.5,2.5
		c0,0.9,0.2,1.7,0.5,2.5c0.3,0.8,0.8,1.5,1.4,2.1s1.2,1.1,2,1.4c0.8,0.4,1.6,0.5,2.5,0.5c0.9,0,1.7-0.2,2.5-0.5
		c0.8-0.4,1.5-0.8,2-1.4c0.6-0.6,1-1.3,1.4-2.1C-566.4-146.1-566.2-147-566.2-147.9z"/>
	<path d="M-547-143.1c0.1-0.1,0.2-0.1,0.3-0.2c0.1-0.1,0.2-0.1,0.3-0.1c0.1,0,0.3,0.1,0.4,0.3c0.2,0.3,0.3,0.5,0.5,0.6
		c0.1,0.2,0.2,0.3,0.3,0.4c0.1,0.1,0.1,0.2,0.2,0.2c0,0.1,0.1,0.1,0.1,0.2c0,0.1,0,0.1,0,0.2c0,0.1,0,0.2-0.1,0.3
		c-0.1,0.1-0.2,0.3-0.4,0.4c-0.4,0.3-0.8,0.6-1.3,0.9c-0.4,0.3-0.9,0.5-1.4,0.7c-0.5,0.2-1,0.3-1.5,0.4s-1.1,0.2-1.7,0.2
		c-0.8,0-1.6-0.1-2.4-0.3c-0.8-0.2-1.5-0.5-2.2-0.9c-0.7-0.4-1.3-0.9-1.9-1.4c-0.6-0.6-1.1-1.2-1.5-1.9s-0.7-1.4-1-2.2
		c-0.2-0.8-0.3-1.6-0.3-2.4s0.1-1.7,0.3-2.4s0.5-1.5,0.9-2.2c0.4-0.7,0.9-1.3,1.4-1.9c0.6-0.6,1.2-1,1.9-1.4s1.4-0.7,2.2-0.9
		c0.8-0.2,1.6-0.3,2.5-0.3c0.7,0,1.4,0.1,2.1,0.2s1.4,0.4,2,0.7c0.6,0.3,1.2,0.7,1.8,1.1c0.6,0.4,1.1,1,1.5,1.5
		c0.6,0.8,1,1.7,1.3,2.7c0.3,1,0.4,2.2,0.4,3.5c0,0.4-0.2,0.7-0.6,0.7h-14.8c0.2,0.7,0.4,1.4,0.8,2.1c0.4,0.6,0.9,1.2,1.4,1.7
		c0.6,0.5,1.2,0.8,1.9,1.1c0.7,0.3,1.4,0.4,2.1,0.4c0.5,0,1,0,1.4-0.1c0.4-0.1,0.8-0.2,1.1-0.4c0.3-0.2,0.7-0.4,0.9-0.6
		C-547.6-142.6-547.3-142.8-547-143.1L-547-143.1z M-554.6-153.4c-0.7,0.5-1.3,1.1-1.8,1.8c-0.5,0.7-0.9,1.5-1,2.4h12.7
		c-0.1-0.8-0.3-1.5-0.7-2.1s-0.9-1.2-1.4-1.6c-0.6-0.4-1.2-0.8-1.9-1c-0.7-0.2-1.5-0.4-2.2-0.4c-0.6,0-1.2,0.1-1.8,0.2
		S-554.1-153.8-554.6-153.4z"/>
	<path d="M-526.9-154.4c0.8-0.8,1.7-1.5,2.8-1.9c1.1-0.5,2.2-0.7,3.5-0.7c0.8,0,1.6,0.1,2.4,0.3c0.8,0.2,1.5,0.5,2.2,0.9
		c0.7,0.4,1.3,0.9,1.9,1.4s1,1.2,1.5,1.9c0.4,0.7,0.7,1.4,0.9,2.2s0.3,1.6,0.3,2.4c0,0.8-0.1,1.6-0.3,2.4s-0.5,1.5-0.9,2.2
		c-0.4,0.7-0.9,1.3-1.5,1.9s-1.2,1-1.9,1.4c-0.7,0.4-1.4,0.7-2.2,0.9c-0.8,0.2-1.6,0.3-2.4,0.3c-1.2,0-2.4-0.2-3.5-0.7
		c-1.1-0.5-2-1.1-2.8-1.9v1.7c0,0.4-0.2,0.6-0.6,0.6h-1.4c-0.4,0-0.7-0.2-0.7-0.6v-21.8c0-0.2,0.1-0.3,0.2-0.4
		c0.1-0.1,0.3-0.2,0.4-0.2h1.5c0.2,0,0.4,0.1,0.5,0.2c0.1,0.1,0.2,0.3,0.2,0.4V-154.4z M-527.1-147.9c0,0.9,0.2,1.7,0.5,2.5
		c0.3,0.8,0.8,1.5,1.4,2.1s1.3,1.1,2,1.4c0.8,0.4,1.6,0.5,2.5,0.5c0.9,0,1.7-0.2,2.5-0.5c0.8-0.4,1.4-0.8,2-1.4
		c0.6-0.6,1-1.3,1.4-2.1c0.3-0.8,0.5-1.6,0.5-2.5c0-0.9-0.2-1.7-0.5-2.5c-0.3-0.8-0.8-1.5-1.4-2.1c-0.6-0.6-1.2-1.1-2-1.5
		c-0.8-0.4-1.6-0.5-2.5-0.5c-0.9,0-1.7,0.2-2.5,0.5c-0.8,0.4-1.5,0.9-2,1.5s-1,1.3-1.4,2.1C-526.9-149.6-527.1-148.7-527.1-147.9z"
		/>
	<path d="M-507-156.3c0.2,0.5,0.4,1.1,0.7,1.8c0.3,0.7,0.6,1.5,0.9,2.3s0.7,1.7,1,2.6s0.7,1.7,1,2.5c0.3,0.8,0.6,1.5,0.9,2.2
		c0.3,0.7,0.5,1.2,0.6,1.6c0.1-0.4,0.4-0.9,0.6-1.6c0.3-0.7,0.5-1.4,0.9-2.2c0.3-0.8,0.6-1.7,1-2.5c0.3-0.9,0.7-1.7,1-2.6
		c0.3-0.8,0.6-1.6,0.9-2.3c0.3-0.7,0.5-1.3,0.7-1.8c0.1-0.2,0.2-0.3,0.3-0.4c0.1-0.1,0.3-0.1,0.5-0.1h1.6c0.4,0,0.6,0.2,0.6,0.5
		c0,0,0,0.1,0,0.1c0,0,0,0.1,0,0.1c0,0,0,0.1,0,0.2l-3.3,8.1l-5.6,13.7v0c-0.1,0.3-0.4,0.5-0.7,0.5h-1.4c-0.4,0-0.7-0.2-0.7-0.5
		c0-0.1,0-0.1,0-0.2c0-0.1,0-0.1,0-0.1l2.3-5.6l-6.5-15.8c0,0,0-0.1,0-0.1c0-0.1,0-0.2,0-0.3c0-0.3,0.2-0.5,0.6-0.5h1.5
		c0.2,0,0.3,0,0.5,0.1C-507.2-156.5-507.1-156.4-507-156.3z"/>
</g>
<g>
	<g>
		<defs>
			<rect id="SVGID_00000141455185372381884300000001708426415079576453_" x="-630.5" y="-133.6" width="239.7" height="53.8"/>
		</defs>
		<clipPath id="SVGID_00000083085196584060307360000005596619818444417157_">
			<use xlink:href="#SVGID_00000141455185372381884300000001708426415079576453_"  style="overflow:visible;"/>
		</clipPath>
		<g style="clip-path:url(#SVGID_00000083085196584060307360000005596619818444417157_);">
			<defs>
				<rect id="SVGID_00000035488515502536313040000009286504228184384950_" x="-630.5" y="-133.6" width="239.7" height="53.8"/>
			</defs>
			<clipPath id="SVGID_00000183930196310102439860000012396076796720946869_">
				<use xlink:href="#SVGID_00000035488515502536313040000009286504228184384950_"  style="overflow:visible;"/>
			</clipPath>
			<path style="clip-path:url(#SVGID_00000183930196310102439860000012396076796720946869_);fill:#FCDA03;" d="M-545.3-79.8
				c-1.9-0.8-4-1.4-6-2.1c-1.2-0.4-2.4-0.8-3.6-1.2c-0.4-0.1-0.6-0.4-0.6-0.8c0-3,0-5.9,0-8.9c0-0.6-0.2-0.7-0.7-0.7
				c-3.6,0-7.2,0-10.8,0c-0.5,0-0.8-0.1-1.1-0.5c-2.2-2.9-4.4-5.8-6.5-8.8c-0.2-0.2-0.4-0.5-0.5-0.7c-0.6-0.7-0.6-0.7-1.1,0
				c-2.4,3.2-4.8,6.4-7.2,9.7c-0.2,0.2-0.3,0.2-0.6,0.2c-3.9,0-7.8,0-11.7,0c-0.1,0-0.1,0-0.3-0.1c1-1.5,2.1-2.9,3.1-4.4
				c1.7-2.4,3.5-4.8,5.2-7.1c1.8-2.5,3.6-5.1,5.5-7.6c0.3-0.4,0.2-0.6,0-0.8c-1.7-2.3-3.5-4.7-5.2-7c-1.9-2.6-3.9-5.2-5.8-7.9
				c-0.8-1.1-1.6-2.2-2.4-3.3c-0.1-0.2-0.3-0.4-0.2-0.6c0.1-0.2,0.4-0.1,0.5-0.1c3.9,0,7.8,0,11.6,0c0.3,0,0.5,0,0.7,0.3
				c1,1.5,2.1,3,3.2,4.5c1.4,1.9,2.7,3.9,4.1,5.8c0.7-0.9,1.3-1.8,1.9-2.7c1.8-2.6,3.7-5.1,5.5-7.7c0.2-0.2,0.4-0.3,0.7-0.3
				c4,0,8,0,12,0c0,0,0.1,0,0.2,0.1c-0.4,0.9-1.1,1.7-1.7,2.5c-1.7,2.4-3.5,4.8-5.3,7.2c-2.1,2.8-4.1,5.7-6.2,8.5
				c-0.7,1-0.8,0.9-0.1,1.9c2.3,3.2,4.7,6.4,7,9.7c2,2.8,4,5.5,6,8.4c0.2-0.3,0.1-0.5,0.1-0.8c0-6.1,0-12.2,0-18.3
				c0-3.6,1-6.9,2.9-10c2-3.3,4.8-5.7,8.2-7.4c2.1-1,4.2-1.6,6.6-1.9c3.8-0.4,7.4,0.1,10.8,1.8c5.8,2.9,9.4,7.5,10.9,13.8
				c0.6,2.5,0.5,5,0.1,7.5c-0.5,3.5-2.1,6.6-4.3,9.3c-2.1,2.6-4.8,4.6-8,5.7c-2.1,0.8-4.2,1.3-6.5,1.4c-3.3,0.1-6.4-0.6-9.4-1.9
				c-0.8-0.4-0.8-0.4-0.8,0.5c0,4.9,0,9.8,0,14.6C-545.1-79.8-545.2-79.8-545.3-79.8 M-535.6-103.5c5.1,0,9.3-4.2,9.3-9.3
				c0-5.4-4.2-9.3-9.3-9.4c-5.2,0-9.3,4-9.3,9.4C-545-107.6-540.9-103.5-535.6-103.5"/>
			<path style="clip-path:url(#SVGID_00000183930196310102439860000012396076796720946869_);fill:#FCDA03;" d="M-630.5-114.2
				c0.1-0.9,0.3-1.8,0.4-2.7c0.6-3,1.9-5.7,3.8-8.1c2-2.5,4.5-4.4,7.4-5.8c1.8-0.8,3.8-1.3,5.8-1.6c2.9-0.4,5.8,0,8.6,0.9
				c2.3,0.8,4.4,2,6.3,3.6c3.5,2.9,5.5,6.5,6.5,10.8c0.3,1.3,0.4,2.6,0.4,3.9c0,1.5,0,3.1,0,4.6c0,0.6-0.2,0.7-0.7,0.7
				c-8.6,0-17.2,0-25.8,0h-1c1.4,1.9,3,3.3,5.1,3.9c2.4,0.7,4.8,0.6,7.1-0.5c0.9-0.4,1.7-1,2.3-1.7c0.2-0.2,0.4-0.3,0.7,0
				c1.3,1.3,2.6,2.6,4,3.9c0.9,0.8,1.8,1.7,2.7,2.5c0.3,0.3,0.3,0.5,0,0.8c-2.9,2.8-6.2,4.6-10.2,5.4c-1.3,0.3-2.5,0.4-3.8,0.4
				c-4.4-0.1-8.4-1.4-11.9-4.1c-2.5-1.9-4.3-4.2-5.7-6.9c-1.1-2.2-1.8-4.5-1.9-6.9c0-0.1,0-0.2-0.1-0.3
				C-630.5-112.3-630.5-113.3-630.5-114.2 M-602.9-117.9c-1.8-3-5.8-4.9-9.2-4.3c-2.6,0.5-4.7,1.7-6.3,3.8c-0.1,0.1-0.3,0.2-0.3,0.4
				c0.1,0.3,0.4,0.1,0.6,0.1c3.9,0,7.7,0,11.6,0C-605.3-117.9-604.2-117.9-602.9-117.9"/>
			<path style="clip-path:url(#SVGID_00000183930196310102439860000012396076796720946869_);fill:#FCDA03;" d="M-466.1-130.1
				c1.4-0.6,2.7-0.9,4-1.2c1.6-0.3,3.1-0.3,4.7-0.2c1.5,0.2,3,0.5,4.4,1c2.1,0.8,3.9,1.9,5.6,3.4c2.7,2.4,4.4,5.5,5.3,9
				c0.3,1.3,0.5,2.6,0.5,3.9c0,6.6,0,13.2,0,19.8c0,0.7-0.2,0.9-0.9,0.9c-3,0-6,0-9,0c-0.6,0-0.8-0.2-0.8-0.8c0-6.6,0-13.3,0-19.9
				c0-3.6-3.2-6.8-6.8-6.8c-2.1,0-3.8,0.6-5.3,2c-1.2,1.2-1.9,2.6-1.9,4.3c0,6.8,0,13.6,0,20.4c0,0.7-0.2,0.8-0.9,0.8
				c-3,0-5.9,0-8.9,0c-0.6,0-0.7-0.2-0.7-0.7c0-6.3,0-12.5,0-18.8c0-6.3,0-12.7,0-19c0-0.5,0.1-0.8,0.7-0.7c3,0,6,0,9.1,0
				c0.6,0,0.7,0.2,0.7,0.8C-466.2-131.4-466.1-130.8-466.1-130.1"/>
			<path style="clip-path:url(#SVGID_00000183930196310102439860000012396076796720946869_);fill:#FCDA03;" d="M-438.7-113
				c0-4.5,1.5-8.8,4.6-12.5c3-3.6,6.8-5.9,11.4-6.8c5.2-1,10.1-0.1,14.6,2.8c2.1,1.3,3.8,2.9,5.3,4.9c0.3,0.4,0.3,0.5-0.1,0.8
				c-2.5,1.7-5.1,3.5-7.6,5.3c-0.4,0.3-0.7,0.3-1-0.1c-1.6-2.1-3.8-3.2-6.5-3.4c-2.9-0.2-5.4,0.7-7.5,2.8c-1.4,1.5-2.3,3.3-2.5,5.4
				c-0.3,3.1,0.7,5.7,2.9,7.9c1.4,1.3,3,2.1,4.9,2.3c3.4,0.5,6.1-0.6,8.4-3.1c0.3-0.3,0.4-0.8,0.8-0.8c0.3,0,0.6,0.4,0.9,0.6
				c2.4,1.7,4.9,3.3,7.3,5c0.4,0.2,0.3,0.4,0.1,0.8c-2.1,2.8-4.7,5-7.9,6.4c-2.3,1-4.7,1.6-7.3,1.8c-2.8,0.1-5.5-0.3-8.1-1.3
				c-2.2-0.9-4.3-2.1-6.1-3.7c-2-1.8-3.6-4-4.8-6.4c-0.9-1.9-1.4-3.8-1.7-5.9C-438.7-111.1-438.7-111.9-438.7-113"/>
			<path style="clip-path:url(#SVGID_00000183930196310102439860000012396076796720946869_);fill:#FCDA03;" d="M-483.1-133.6h0.4
				c0,13.1,0,26.2,0,39.2c0,0.8-0.2,0.9-0.9,0.9c-3,0-6,0-9.1,0c-0.5,0-0.7-0.2-0.7-0.7c0-11.8,0-23.7,0-35.5c0-0.5,0.2-0.6,0.6-0.8
				C-489.5-131.4-486.3-132.5-483.1-133.6"/>
			<path style="clip-path:url(#SVGID_00000183930196310102439860000012396076796720946869_);fill:#FCDA03;" d="M-390.8-100.2v1.3
				c-0.4,1.6-1.3,2.8-3,3.3c-1.9,0.6-3.7-0.2-4.7-1.8c-1.1-1.8-0.9-3.6,0.5-5c1.1-1.2,2.6-1.6,4.3-1.1
				C-392.2-103.1-391.2-102-390.8-100.2C-390.9-100.3-390.9-100.3-390.8-100.2"/>
		</g>
	</g>
</g>
<g>
</g>
<g>
</g>
<g>
</g>
<g>
</g>
<g>
</g>
<g>
</g>
</svg>
