<svg id="Layer_1" data-name="Layer 1" xmlns="http://www.w3.org/2000/svg" viewBox="0 0 306.82 36.39"><defs><style>.cls-1{fill:#03699b;}.cls-2{fill:#000005;}.cls-3{fill:#fff;}</style></defs><rect class="cls-1" x="2.79" y="3.34" width="304.03" height="30.47" rx="4.57"/><path class="cls-2" d="M279.77,3.19c-.14,0-.14-.07-.15-.1C279.32,3.14,279.2,3.18,279.77,3.19Z"/><path class="cls-2" d="M27.93,31.48l1.16-.11A3.77,3.77,0,0,0,27.93,31.48Z"/><path class="cls-2" d="M19.54,31.41l-.2.2C19.73,31.48,19.89,31.42,19.54,31.41Z"/><path class="cls-3" d="M114.35.85c-1.68-.37-3.57-1-3.37-.5l.52.43A16,16,0,0,1,114.35.85Z"/><path class="cls-2" d="M28.2,3.48l.49.13,1.14-.42Z"/><path class="cls-2" d="M27,5.23,24.79,5A20.4,20.4,0,0,0,27,5.23Z"/><path class="cls-2" d="M73.72,31l1.35-.44C73,30.54,73.89,30.76,73.72,31Z"/><path class="cls-2" d="M24.63,36c.71-.08,1-.17,1-.26C24.89,35.85,24.48,35.94,24.63,36Z"/><path class="cls-2" d="M239.8,31.34l.37.05C240.21,31.33,240,31.33,239.8,31.34Z"/><path class="cls-2" d="M169,3.4h-.09C169.26,3.48,169.2,3.48,169,3.4Z"/><path class="cls-2" d="M150.81,32.48h.24C152.14,32.36,151.66,32.39,150.81,32.48Z"/><path class="cls-3" d="M82.18,5.68A8.29,8.29,0,0,1,86,5.32L84.75,4.07Z"/><path class="cls-3" d="M204,.56c-1.51-.1-3.81.5-2.5.15l-5,.27V.87c-5-.06-10.19.75-15.85-.07a44,44,0,0,1-6.18.13l-.54-.39c-2.14.14-6.42-.39-7.34,0-2.35-1.06-10.43-.21-14.19-.4l-.14.51c-2.59,0-5.08.12-8.29.32l.2.45c-2.78.37-7.13-.32-11.51-.28a5.76,5.76,0,0,1,2.19,0c-5.24-1-11,.74-15.8,0a9.86,9.86,0,0,1-2.87,0,1.4,1.4,0,0,0,.29,0H116L114.36.9a10.62,10.62,0,0,0,1.39.24c-.92,0-2.3.06-3.66.18l-.58-.49h-.31c-1.33-.18-1.07.23-.36.59a17.76,17.76,0,0,0-1.8.29c-1.08-.78-3.56.26-5-.57-.92.41-6.83.31-7.55,1.16,0-.12-.45-.17.29-.17a19,19,0,0,0-4.39,0l-.64-.61-3.3.82c-2-.37-2.84-.59-.85-1.06-4.81.73-3.9.27-8,1l.2-.39c-1.46,0-3.8.54-4.68.21-3.27-.75-16.19-.1-24.59-.8,1.63,1.17-3.91-.52-4.24.38-.49-.27-1.66-.43-.3-.67-4.29.27-6.44-.44-9.4.33-.49-.28.92-.41.48-.57a4.61,4.61,0,0,1-1.81.07c-.44-.16.63-.23,1.31-.35-4.38.05-4.83.9-5.14,1.7a9,9,0,0,0-4.93.19c-.78-.26-2.06-.53.66-.62-1.53,0-9.36-.39-9.51.25a9.82,9.82,0,0,0-2.54,0C11.67,2,11.37,1.91,8,2l.93.11a2.78,2.78,0,0,1-1,.35,8.9,8.9,0,0,0-1.41.1,4.92,4.92,0,0,0-3.4,1.79V4.24A5.26,5.26,0,0,0,1.55,7.77a9.84,9.84,0,0,0,0,1.33,20.68,20.68,0,0,1-.17,4.38l.48-.33c1,.57-.61,5.45-.21,9l.27-1.29c.35,1.95-1.4,5.45-1.53,7.41C.3,28.7.24,27.59.18,27,.1,27.67,0,28.16,0,28.54V29a2.67,2.67,0,0,0,0,.4c0,.58.17.63.3.62a.35.35,0,0,1,.43.19c.18.26.33.89,1,2.07.11.51-.24.35-.4.44s-.1.18,0,.51A4.62,4.62,0,0,0,2.56,34.8,5.25,5.25,0,0,0,5,36.15a6.81,6.81,0,0,0,2.11.23H8l.79-.09a24.31,24.31,0,0,1,6.32-.08c-.78-.26-1.54-.52.23-.72,2.72-.09,7.35,1,9.81.16.35.07.48.14.49.21,2.08-.21,6.76-.36,8-.8,1.92,1.66,12.92-.81,12.88.72l6.39-.08-.16.15a21.2,21.2,0,0,0,7-.63c.94.11.25.25.17.33A40.18,40.18,0,0,0,71.45,35l.56.45c1.35-.29,8.63.77,14.49.2a1.08,1.08,0,0,1-.64.22c6.59-.58,15.77,1.37,18.19-.43L108.4,35c-5.63-.14.84-.78-1.48-1.08,2.21-.11,5.72.55,3,.64l-.42-.09c-1,.94,7,.33,6.84,1,11.07,0,21.86.48,32.23.52l-1.19-.74,3.62,0c.95.17,1.27.57-1.31.54a8.81,8.81,0,0,0,4.4-.51c5.06.3-2,.86-.42.87h2.1l-.47-.09a16.51,16.51,0,0,1,5-.58c2,.15,1,.45,1.78.48,0,0,.25.08,1.18,0l4.56.07-1.89-.62c2-.29,4.28,0,2.18-.63,3.09,1,17,.37,18.9.68a57.38,57.38,0,0,1,9.08-.36c-.86-.12-1.37-.77,1.61-.69-1.09,1.34,5.46.58,7.88,1.54-2.16-.64,8.48-.16,5.1-1.06,2.49.11.15.5,2,.81,5.92-.51,13.06.34,20.38.17.12-.18-1.11-.45.46-.71l3.87.88c1.45-.09,1.33-1,4-.41-.38-.14-.93-.37,0-.42,14.35.85,29.32-.71,43.89.91-2-.35-.65-.38.85-.39-1-.08,0-.44-.17-.67l6.1.66c1.12-.66,6.55,0,7.18-.68l-1.93.11c2.57-.74-3.59-1.66-3.22-2.61-2.88.85-7.59-1.26-12.31,0-1-.19.89-.3.34-.53a13.46,13.46,0,0,1-5.32.32l.3-.11c-7.52.1-10.75-.3-19.2-.57l.62.47a16.8,16.8,0,0,1-3-.33c-2.09.72,5.1,0,3.2.84-2.41-1-12.81,0-14.44-1.11-2.79,0,.82.54-2,.54l-.74-.3-.71.38c-1.83-.06-2.75-.43-2.82-.68.44,0,1.26-.07,1.74-.09-2.38-.35-6.7.12-7.52,0l2.78,0c-7.63.28-16.94-.11-24.3.5l.56.22c-5.63.41-4.51-.25-10.69,0l.23-.06a24.27,24.27,0,0,1-4.58.31c1.56-.26-2.93-.51-.89-.8-6.1.45-3,.35-7,1.18l-.93-.37a14.17,14.17,0,0,1-4.57.61c2.52-.32-2-.56.86-1-6.47-.81-9.61.82-12.58-.36-3,1,5.6.57,3.94.79,1.39.33-2.46.76-4.49.66s-3.51-1.31-8.72-1.29c.52,0,.56-.08,1.07-.07-1.94-.26-3.81.35-6.2-.07-1.34.62-3.1,0-3.49.75L158,32.3c-2.71.21-5.24,1.13-9.7.68a19.07,19.07,0,0,1,2.5-.5c-1.3-.24-2.51.15-3.86-.09.39-.79,5.8-.17,8.7-.77-1.4-.34-5.48.57-4-.29-2.09,1.09-5.12-.14-8.64.7l.23-.48a16.87,16.87,0,0,1-2.74.29l1.86-.62c-2.85.53-5.5-.45-8.24-.17,5.73,0,1.29.57,3.71.92-7.06.63-4.06-1.24-12-1,1.07-.07,4,.28,2.35.5a28.38,28.38,0,0,1-4.42-.53c-5.24.1.8.49-1.43.78-1.78-.58-2.57.24-4.87.42v-.48c-6-.31-1.59,1-7,.63l2.27-.67-2.8.17.58-.54a28.77,28.77,0,0,1-7,.14c.69.34-.39.88-3,.89-1.8-.28,1-.45-2.73-.39a4.92,4.92,0,0,1,3.4-.23c.17-.16.84-.3,1-.46a40.63,40.63,0,0,0-6.24-.07,12.12,12.12,0,0,1,1.47.11l-5.4.68c-.85-.18-.17-.33.5-.47-1.1.05-1.86.28-3.48.32.42-.4.32-.8,2.61-1l-5.18.43c-.35-.17-2.66-.47-2-.61-2.87-.23-7,.76-10.84.45a5.66,5.66,0,0,1-1.41.21c-3.57-.09-6.74-.57-11,0l-2.41-.71c-3.32.16,3.26.89-2.27,1.16-3.91.22-1.46-.6-2.83-.8a25.56,25.56,0,0,1-8.93.5c1.24-.14,2.12,0,3.24-.09l-2.74-.39c3.3-.64,5.7-.42,3.12-1-.38,1.36-10.65.14-11,1.5l-1.8-.29c.51,0,.6-.06,1.11-.05-3.52-.65-2.61,1-7.14.79-1.58-.1-2.68-.3-1.6-.46l-3.52.33c-1,0-.77-.26.25-.23l-5.36.11h0c-.77.21-2.5.54-3.35.68-1.36-.2.69-.15.34-.32l-3,.33c-1.21-.35,1.25-.69,3.3-.64-2.77-1.36-2.46.34-8.44-.45l2.8-.17a9.85,9.85,0,0,0-3-.57c-.79,0-.7-.08-.89-.17a.61.61,0,0,1-.27-.44,1.15,1.15,0,0,0,.42,1l.13.12.27.12a1,1,0,0,1,.35.23c0,.07,0,.13-.16.19a3.67,3.67,0,0,1-.64.14,5.7,5.7,0,0,1-1.79-.86c.19-.16.12-.37,0-.67a1.58,1.58,0,0,1-.14-.55V28.43l.64.14c-.18-2.29-.51-2.11-.79-3.46.06-2.56.55-3.09,1-3.7.1-4.09-.79,2.83-.91-2a55.91,55.91,0,0,0-.46-9.93c.22-2.39.39.41.57-.44L5,8a2.54,2.54,0,0,1-.19-.61c.08-.28.2-.14.27-.08A.87.87,0,0,0,5,6.54c-.06-.14-.19-.45.5-1.15,0-.22.27-.44.71-.56A2.4,2.4,0,0,1,7,4.76H7.4L8,4.9A16.07,16.07,0,0,0,13.63,5c.85.18-.41.39-.15.64a69.88,69.88,0,0,0,8-1.09L24.81,5c-2.45-.48.68-1,3.41-1.51-.87-.23-1.61-.44-2.1-.53l4.36-.35c.53.11.09.33-.63.59l.8-.15c1.57.24.76.61-.36,1l-1.58-.39c-1.07.39-2.08.82-1.86,1.19a11.39,11.39,0,0,1,1.43-.17c-.28.11-.46.2-.33.26a4,4,0,0,0,1.32-.23l1,.71.24-.28,5.68.39c4.09-.72,7.64-1.77,14.13-2.07-1.61.53-.35.86-.43,1.48-1.77-.66-5,.28-8.39.14,1.76.07,1.37.37.92.47l6-.6c-.14.51,1.27.38,2.84.59-1.19-1,4.47-.66,6.91-1,.15.34-.44.68-3.41.6C58,5.88,59,4,62.22,4.59a3.71,3.71,0,0,0-1.4.13c1.69-.3,5.84-.06,4.87.23H65c4.83.12,14.69,0,15.41-.85a3.22,3.22,0,0,1-.93,1.2L88,2.48c-.76.73,2.15,2.47-1.85,2.88a22,22,0,0,0,5,0c-.78-.1-2-1.06-.88-1.12A44.48,44.48,0,0,0,96,5.31C94.83,5.15,96.14,4,98,4c-.29.17.16,1.13-.52,1.25l4.62-1.12c-1.15.2-.21,1,.83,1.27-.48-.22,4,0,5.22-.09l-2-.27c5.21.17,5.15-1.58,10.32-1.52-.62.23-1.54,1.43,1.09,1.57a29.92,29.92,0,0,1,9.92-3.21l.87.33,3.52-.38a101.84,101.84,0,0,1-11.68,3.4c2,.26.54.39,3.47.36,1,.31-1.6.47-2.46.49l6.81.2c-.3-.68,5.2-.68,4.94-1.24l-7.39.7c-.3-.67,4.28-1.91,9.1-1.79,1.22.27-.92,1.2-.82,1.42a22.6,22.6,0,0,1,5-.28l-2,.36c2.68.26,4.38-.89,7.6-.25,1.12,0,3.33.87,3.52.47-1.82-.77-2.17-3.14-1-3.72.39.06,5.85.74,7.12,1.12,1.83.6-2.76,1.43-1.19,2,.06-.19,1.08-.41,1.5-.49,1.17.16-.49.57,2.05.49.43-.68,5.17.06,1.21-.58,2.48-.19,2.64.14,5.56.11-.93-.44,2.62-1.49,5.11-1.69-.15.17.41.4.68.5,5.1.06,7.83.37,12.58.38.44.16,2.73.36,1.76.66a12.83,12.83,0,0,1,2.77-.37c2.84.59-3.27.09-1.1.8.18-.4,3.79-.55,5.87-.79-.64-.62-4.82-.12-6.91.13,0-.85,3.63-1.73,8.6-2.12,3.94-.21,1.71.54,2.39.42m13.12.6c-3.21.2-4.93-.35-7.11-.32l2.68.25a18,18,0,0,1-4.34.16c2,.48,12.53.09,18.25.54,1-.18,2.77-.37,1.94-.59l-1.81.08M7.2,31.61h.19l.38-.13.85-.11a3.12,3.12,0,0,1,1.39.11,2.25,2.25,0,0,1-1.31.33A2.5,2.5,0,0,1,8,31.73,3.26,3.26,0,0,1,7.2,31.61Zm27-27.24a6.53,6.53,0,0,1-2.53-.11,13.72,13.72,0,0,1,2.56.11ZM162.42,35.75l-.72-.13C163.32,35.48,162.86,35.61,162.42,35.75Z"/><path class="cls-2" d="M27.17,5a.55.55,0,0,1-.34-.27C26.52,4.84,26.51,4.94,27.17,5Z"/><path class="cls-2" d="M73.47,31.06h.13a.23.23,0,0,0,.12-.08Z"/><path class="cls-2" d="M154.37,5.31a6.48,6.48,0,0,1-1.45-.25C152.87,5.18,153.22,5.27,154.37,5.31Z"/><polygon class="cls-2" points="230.69 3.49 229.92 3.38 228.05 3.35 230.69 3.49"/><polygon class="cls-2" points="149.93 3.6 150.66 3.6 150.55 2.58 149.93 3.6"/><path class="cls-3" d="M111.74,6c3.4.24.81-.63,3.89-.32.8-.24-2.52-.25-1.7-.46C111.87,5.48,110.79,5.37,111.74,6Z"/><path class="cls-2" d="M113.93,5.26a4.85,4.85,0,0,0,1-.16C114.59,5.14,114.26,5.19,113.93,5.26Z"/><path class="cls-2" d="M6.31,29.48H6.15c-.16.11-.16.29,0,.57A1.07,1.07,0,0,1,6.31,29.48Z"/><polygon class="cls-3" points="30.69 30.8 30.18 30.79 31.13 31.38 30.69 30.8"/><path class="cls-3" d="M55.63,30.05c-1,0-2.21.11-3.23.09C54.62,30,55.91,30.79,55.63,30.05Z"/></svg>